<svg xmlns="http://www.w3.org/2000/svg" width="741" height="721" viewBox="0 0 741 721">
  <path id="construction" d="M756-120,537-339l84-84L840-204Zm-552,0-84-84L396-480l-68-68-28,28-51-51v82l-28,28L100-582l28-28h82l-50-50L302-802q20-20,43-29a127.957,127.957,0,0,1,47-9,127.957,127.957,0,0,1,47,9q23,9,43,29l-92,92,50,50-28,28,68,68,90-90a166.7,166.7,0,0,1-6.5-23,117.386,117.386,0,0,1-2.5-24q0-59,40.5-99.5T701-841a131.087,131.087,0,0,1,28.5,3,155.54,155.54,0,0,1,27.5,9l-99,99,72,72,99-99a103.879,103.879,0,0,1,9.5,27.5A156.361,156.361,0,0,1,841-701q0,59-40.5,99.5T701-561a145.752,145.752,0,0,1-24-2,91.816,91.816,0,0,1-23-7Z" transform="translate(-100 841)" fill="#28965a"/>
</svg>
