<svg xmlns="http://www.w3.org/2000/svg" width="66.91" height="72.397" viewBox="0 0 66.91 72.397">
  <path id="voted" d="M127.434-786.645a7.159,7.159,0,0,1-5.251-2.184A7.159,7.159,0,0,1,120-794.079v-16.913l10.222-11.616,5.3,5.3-7.434,8.364h50.74l-7.249-8.178,5.3-5.3,10.036,11.43v16.913a7.159,7.159,0,0,1-2.184,5.251,7.159,7.159,0,0,1-5.251,2.184Zm0-7.434h52.041v-7.434H127.434Zm20.909-20.909-13.1-13.1a6.98,6.98,0,0,1-2.091-5.251,7.3,7.3,0,0,1,2.184-5.251l18.214-18.214a7.525,7.525,0,0,1,5.3-2.23,6.887,6.887,0,0,1,5.3,2.044l13.1,13.1a7.419,7.419,0,0,1,2.23,5.2,6.773,6.773,0,0,1-2.044,5.2L158.845-814.9a6.981,6.981,0,0,1-5.251,2.091A7.3,7.3,0,0,1,148.344-814.989Zm23.7-23.6-13.1-13.1-18.4,18.4,13.1,13.1Zm-44.607,44.514v0Z" transform="translate(-120 859.042)" fill="#28965a"/>
</svg>
